<?xml version="1.0" encoding="UTF-8" standalone="no"?>
<!-- Created with Inkscape (http://www.inkscape.org/) -->

<svg
   width="512"
   height="512"
   viewBox="0 0 135.46666 135.46667"
   version="1.1"
   id="svg8"
   inkscape:version="1.2.2 (b0a8486, 2022-12-01)"
   sodipodi:docname="icon.svg"
   xmlns:inkscape="http://www.inkscape.org/namespaces/inkscape"
   xmlns:sodipodi="http://sodipodi.sourceforge.net/DTD/sodipodi-0.dtd"
   xmlns="http://www.w3.org/2000/svg"
   xmlns:svg="http://www.w3.org/2000/svg"
   xmlns:rdf="http://www.w3.org/1999/02/22-rdf-syntax-ns#"
   xmlns:cc="http://creativecommons.org/ns#"
   xmlns:dc="http://purl.org/dc/elements/1.1/">
  <defs
     id="defs2" />
  <sodipodi:namedview
     id="base"
     pagecolor="#ffffff"
     bordercolor="#666666"
     borderopacity="1.0"
     inkscape:pageopacity="0.0"
     inkscape:pageshadow="2"
     inkscape:zoom="0.67388173"
     inkscape:cx="130.58671"
     inkscape:cy="271.561"
     inkscape:document-units="px"
     inkscape:current-layer="layer1"
     showgrid="false"
     units="px"
     inkscape:window-width="1440"
     inkscape:window-height="801"
     inkscape:window-x="0"
     inkscape:window-y="25"
     inkscape:window-maximized="1"
     inkscape:showpageshadow="2"
     inkscape:pagecheckerboard="0"
     inkscape:deskcolor="#d1d1d1" />
  <metadata
     id="metadata5">
    <rdf:RDF>
      <cc:Work
         rdf:about="">
        <dc:format>image/svg+xml</dc:format>
        <dc:type
           rdf:resource="http://purl.org/dc/dcmitype/StillImage" />
      </cc:Work>
    </rdf:RDF>
  </metadata>
  <g
     inkscape:label="Layer 1"
     inkscape:groupmode="layer"
     id="layer1"
     transform="translate(0,-161.53332)">
    <g
       id="g1127"
       transform="matrix(1.1258235,0,0,1.1258235,-6.3281153,-36.303583)"
       style="stroke-width:0.888239">
      <path
         inkscape:connector-curvature="0"
         style="color:#000000;font-style:normal;font-variant:normal;font-weight:normal;font-stretch:normal;font-size:medium;line-height:normal;font-family:sans-serif;font-variant-ligatures:normal;font-variant-position:normal;font-variant-caps:normal;font-variant-numeric:normal;font-variant-alternates:normal;font-feature-settings:normal;text-indent:0;text-align:start;text-decoration:none;text-decoration-line:none;text-decoration-style:solid;text-decoration-color:#000000;letter-spacing:normal;word-spacing:normal;text-transform:none;writing-mode:lr-tb;direction:ltr;text-orientation:mixed;dominant-baseline:auto;baseline-shift:baseline;text-anchor:start;white-space:normal;shape-padding:0;clip-rule:nonzero;display:inline;overflow:visible;visibility:visible;opacity:1;isolation:auto;mix-blend-mode:normal;color-interpolation:sRGB;color-interpolation-filters:linearRGB;solid-color:#000000;solid-opacity:1;vector-effect:none;fill:#000000;fill-opacity:1;fill-rule:nonzero;stroke:none;stroke-width:8.95851;stroke-linecap:butt;stroke-linejoin:round;stroke-miterlimit:4;stroke-dasharray:none;stroke-dashoffset:0;stroke-opacity:1;color-rendering:auto;image-rendering:auto;shape-rendering:auto;text-rendering:auto;enable-background:accumulate"
         d="m 38.054085,210.98919 c -3.12466,0.0314 -6.269469,0.65089 -9.265119,1.89173 -3.48584,1.44389 -6.51971,3.62603 -8.949826,6.31969 -4.050196,4.48944 -6.423422,10.40153 -6.423422,16.68995 0,10.06145 6.076854,19.15765 15.372433,23.00801 8.819066,3.65298 18.927377,1.9158 26.016332,-4.34709 -1.869706,-1.91746 -3.457448,-4.11059 -4.69137,-6.51245 -4.849582,4.70945 -12.013788,6.08886 -18.274571,3.49556 -0.868931,-0.35993 -1.694055,-0.7888 -2.474539,-1.27423 l 19.43935,-23.53404 c 1.317158,-3.58322 3.383449,-6.81309 6.003988,-9.49995 -4.520558,-3.99385 -10.269195,-6.14759 -16.128802,-6.23556 -0.208083,-0.003 -0.416144,-0.004 -0.624454,-0.002 z m 0.09026,7.96351 c 0.141545,-0.002 0.28296,-0.002 0.424335,7.9e-4 1.873993,0.0269 3.729735,0.36665 5.490621,1.00142 l -20.303946,24.57913 c -1.519361,-2.56036 -2.369576,-5.5288 -2.369576,-8.64352 0,-6.86045 4.115766,-13.01987 10.45399,-15.64525 2.042591,-0.84607 4.18139,-1.26973 6.304576,-1.29261 z"
         id="path815" />
      <path
         id="path815-4"
         style="color:#000000;font-style:normal;font-variant:normal;font-weight:normal;font-stretch:normal;font-size:medium;line-height:normal;font-family:sans-serif;font-variant-ligatures:normal;font-variant-position:normal;font-variant-caps:normal;font-variant-numeric:normal;font-variant-alternates:normal;font-feature-settings:normal;text-indent:0;text-align:start;text-decoration:none;text-decoration-line:none;text-decoration-style:solid;text-decoration-color:#000000;letter-spacing:normal;word-spacing:normal;text-transform:none;writing-mode:lr-tb;direction:ltr;text-orientation:mixed;dominant-baseline:auto;baseline-shift:baseline;text-anchor:start;white-space:normal;shape-padding:0;clip-rule:nonzero;display:inline;overflow:visible;visibility:visible;opacity:1;isolation:auto;mix-blend-mode:normal;color-interpolation:sRGB;color-interpolation-filters:linearRGB;solid-color:#000000;solid-opacity:1;vector-effect:none;fill:#000000;fill-opacity:1;fill-rule:nonzero;stroke:none;stroke-width:8.95851;stroke-linecap:round;stroke-linejoin:round;stroke-miterlimit:4;stroke-dasharray:none;stroke-dashoffset:0;stroke-opacity:1;color-rendering:auto;image-rendering:auto;shape-rendering:auto;text-rendering:auto;enable-background:accumulate"
         d="m 74.36807,210.92617 c -13.707127,0 -24.904423,11.1973 -24.904423,24.90442 0,13.70714 11.197296,24.90598 24.904423,24.90598 4.359894,0 8.465064,-1.13444 12.037508,-3.12074 l 3.237528,3.23752 5.635832,-5.63686 -2.57297,-2.57297 c 2.776508,-3.0253 4.818024,-6.73423 5.836853,-10.83758 H 95.697 l 0.0646,-10.30893 3.129524,-0.004 c -2.065148,-11.65488 -12.294778,-20.5667 -24.52305,-20.5667 z m 0,7.97161 c 9.399352,0 16.932816,7.53346 16.932816,16.93281 0,4.30861 -1.585846,8.22293 -4.205945,11.2019 l -6.777881,-6.77788 -5.637382,5.63583 5.761923,5.76141 c -1.883155,0.71731 -3.928762,1.11363 -6.073531,1.11363 -9.399355,0 -16.933334,-7.53553 -16.933334,-16.93489 0,-9.39935 7.533979,-16.93281 16.933334,-16.93281 z" />
      <path
         id="path406"
         style="fill:#000000;stroke:none;stroke-width:0.235013"
         d="m 103.57952,226.1997 0.008,6.63474 -6.575318,0.008 -0.0496,7.93026 h 6.634228 l 0.008,6.56808 7.93078,0.0496 v -6.61769 h 6.54276 l 0.0744,-7.95507 -6.61717,0.008 v -6.55102 z" />
    </g>
  </g>
</svg>
